<svg width="16" height="13" viewBox="0 0 16 13" fill="none" xmlns="http://www.w3.org/2000/svg">
<path d="M0 0.7555C0 0.337709 0.338464 0 0.7555 0H10.577C10.994 0 11.3325 0.337709 11.3325 0.7555C11.3325 1.17329 10.994 1.511 10.577 1.511H0.7555C0.338464 1.511 0 1.17329 0 0.7555ZM14.3545 5.2885H0.7555C0.338464 5.2885 0 5.62621 0 6.044C0 6.46179 0.338464 6.7995 0.7555 6.7995H14.3545C14.7715 6.7995 15.11 6.46179 15.11 6.044C15.11 5.62621 14.7715 5.2885 14.3545 5.2885ZM7.555 10.577H0.7555C0.338464 10.577 0 10.9147 0 11.3325C0 11.7503 0.338464 12.088 0.7555 12.088H7.555C7.97204 12.088 8.3105 11.7503 8.3105 11.3325C8.3105 10.9147 7.97204 10.577 7.555 10.577Z" fill="#00051A"/>
</svg>
